<?xml version="1.0" encoding="utf-8"?>
<!-- Generator: Adobe Illustrator 27.0.1, SVG Export Plug-In . SVG Version: 6.00 Build 0)  -->
<svg version="1.1" id="Layer_1" xmlns="http://www.w3.org/2000/svg" xmlns:xlink="http://www.w3.org/1999/xlink" x="0px" y="0px"
	 viewBox="0 0 60.58 60.58" style="enable-background:new 0 0 60.58 60.58;" xml:space="preserve">
<style type="text/css">
	.st0{fill:#FFFFFF;}
	.st1{fill-rule:evenodd;clip-rule:evenodd;fill:#FFFFFF;}
</style>
<g id="Group_15">
	<g id="Group_12">
		<path id="Path_2" class="st0" d="M47.44,60.58H13.13C5.88,60.57,0.01,54.7,0,47.45V13.13C0.01,5.88,5.88,0.01,13.13,0h34.32
			c7.25,0.01,13.12,5.88,13.13,13.13v34.33C60.56,54.7,54.69,60.57,47.44,60.58z M13.13,2.36c-5.95,0-10.77,4.82-10.77,10.77v34.33
			c0,5.95,4.82,10.77,10.77,10.77h34.32c5.95-0.01,10.76-4.83,10.77-10.77V13.13C58.21,7.18,53.39,2.36,47.44,2.36H13.13z"/>
	</g>
	<g id="Group_14" transform="translate(16.99 5.435)">
		<g id="Group_13">
			<path id="Path_3" class="st1" d="M8.1,49.71h9.63V27.5h7.11l1.42-8.97h-8.53v-6.79c0-2.51,2.4-3.94,4.7-3.94h4.16V0.36
				l-7.45-0.33C12.04-0.41,8.1,5.17,8.1,11.85v6.68H0.01v8.97H8.1V49.71z"/>
		</g>
	</g>
</g>
</svg>
