<?xml version="1.0" encoding="utf-8"?>
<!-- Generator: Adobe Illustrator 27.0.1, SVG Export Plug-In . SVG Version: 6.00 Build 0)  -->
<svg version="1.1" id="Layer_1" xmlns="http://www.w3.org/2000/svg" xmlns:xlink="http://www.w3.org/1999/xlink" x="0px" y="0px"
	 viewBox="0 0 60.58 60.58" style="enable-background:new 0 0 60.58 60.58;" xml:space="preserve">
<style type="text/css">
	.st0{fill:#FFFFFF;}
	.st1{fill-rule:evenodd;clip-rule:evenodd;fill:#FFFFFF;}
</style>
<g id="Group_18" transform="translate(73)">
	<g id="Group_16">
		<path id="Path_4" class="st0" d="M-25.55,60.58h-34.33C-67.12,60.57-73,54.7-73.01,47.45V13.13C-73,5.88-67.12,0.01-59.88,0h34.33
			c7.25,0.01,13.12,5.88,13.13,13.13v34.33C-12.44,54.7-18.31,60.57-25.55,60.58z M-59.88,2.36c-5.95,0-10.76,4.82-10.77,10.77
			v34.33c0.01,5.95,4.83,10.76,10.77,10.77h34.33c5.95-0.01,10.76-4.83,10.77-10.77V13.13C-14.78,7.18-19.6,2.36-25.55,2.36H-59.88z
			"/>
	</g>
	<g id="Group_17" transform="translate(7.747 7.803)">
		<path id="Path_5" class="st1" d="M-60.85,0h20.76c6.7,0.03,12.13,5.46,12.16,12.16v20.66c-0.03,6.7-5.46,12.13-12.16,12.16h-20.76
			c-6.7-0.04-12.12-5.46-12.16-12.16V12.16C-72.97,5.46-67.54,0.04-60.85,0z M-38.35,7.86L-38.35,7.86
			c1.42,0.02,2.56,1.16,2.58,2.58l0,0c-0.02,1.42-1.16,2.56-2.58,2.58l0,0c-1.41,0.02-2.57-1.11-2.59-2.52c0-0.02,0-0.04,0-0.06l0,0
			c-0.01-1.41,1.12-2.57,2.53-2.58C-38.4,7.86-38.38,7.86-38.35,7.86z M-50.51,10.23h0.1c6.74,0.07,12.2,5.51,12.27,12.26l0,0
			c-0.03,6.76-5.51,12.24-12.27,12.27h-0.1c-6.74-0.04-12.18-5.53-12.16-12.27l0,0C-62.65,15.76-57.23,10.3-50.51,10.23
			L-50.51,10.23z M-50.51,14.43h0.1c4.44,0.03,8.04,3.62,8.07,8.06l0,0c0.01,4.48-3.59,8.14-8.07,8.18h-0.1
			c-4.48-0.04-8.09-3.7-8.07-8.18l0,0C-58.56,18.04-54.96,14.45-50.51,14.43z M-60.74,3.87h20.55c4.63,0.01,8.38,3.76,8.38,8.39
			V32.7c0,4.63-3.75,8.39-8.38,8.4h-20.55c-4.63-0.01-8.39-3.76-8.4-8.4V12.27C-69.12,7.63-65.36,3.88-60.74,3.87z"/>
	</g>
</g>
</svg>
