<?xml version="1.0" encoding="utf-8"?>
<!-- Generator: Adobe Illustrator 27.0.1, SVG Export Plug-In . SVG Version: 6.00 Build 0)  -->
<svg version="1.1" id="Layer_1" xmlns="http://www.w3.org/2000/svg" xmlns:xlink="http://www.w3.org/1999/xlink" x="0px" y="0px"
	 viewBox="0 0 415.48 415.48" style="enable-background:new 0 0 415.48 415.48;" xml:space="preserve">
<style type="text/css">
	.st0{fill:#F2F2F2;}
	.st1{fill:#9B30FF;}
</style>
<g>
	<g>
		<g>
			<path class="st0" d="M415.48,207.74c0,39.72-11.15,76.85-30.48,108.39c-6.65,10.87-14.27,21.08-22.75,30.48
				c-38.02,42.28-93.15,68.87-154.5,68.87c-34.53,0-67.08-8.42-95.73-23.34c-10.27-5.32-20.02-11.5-29.19-18.41
				c0-0.02-0.02-0.02-0.02-0.02l16.53-30.87l45.79-85.59l18.43-34.44L229.8,99.03l19.53-36.49l19.53,36.51l84.64,158.2h-39.05
				l-65.12-121.72l-46.69,87.27l-18.43,34.44L128.3,361.72c23.81,12.34,50.83,19.31,79.44,19.31c55.63,0,105.23-26.35,136.96-67.23
				c8.16-10.51,15.13-21.98,20.73-34.23c10.03-21.89,15.61-46.22,15.61-71.84c0-87.25-64.82-159.65-148.84-171.55l17.11-32.01
				C344.11,23.4,415.48,107.23,415.48,207.74z"/>
		</g>
	</g>
	<g>
		<g>
			<path class="st1" d="M220.65,34.94L120.12,222.81h32.08l-18.43,34.44h-71.1l5.15-9.62l13.28-24.82l99.65-186.25
				c-82.77,12.98-146.3,84.8-146.3,171.18c0,50.63,21.81,96.25,56.53,127.91l-16.71,31.26C28.87,328.83,0,271.65,0,207.74
				C0,95.52,88.97,4.09,200.22,0.15c2.5-0.11,4.99-0.15,7.51-0.15c10.33,0,20.49,0.75,30.42,2.22L220.65,34.94z"/>
		</g>
		<g>
			<polygon class="st1" points="283.86,222.81 302.29,257.25 195.68,257.25 214.11,222.81 			"/>
		</g>
	</g>
</g>
</svg>
