<?xml version="1.0" encoding="utf-8"?>
<!-- Generator: Adobe Illustrator 27.0.1, SVG Export Plug-In . SVG Version: 6.00 Build 0)  -->
<svg version="1.1" id="Layer_1" xmlns="http://www.w3.org/2000/svg" xmlns:xlink="http://www.w3.org/1999/xlink" x="0px" y="0px"
	 viewBox="0 0 415.48 493.68" style="enable-background:new 0 0 415.48 493.68;" xml:space="preserve">
<style type="text/css">
	.st0{fill:#F2F2F2;}
	.st1{fill:#9B30FF;}
	.st2{fill:#FFFFFF;}
</style>
<g>
	<g>
		<g>
			<path class="st0" d="M415.48,207.74c0,39.72-11.15,76.85-30.48,108.39c-6.65,10.87-14.27,21.08-22.75,30.48
				c-38.02,42.28-93.15,68.87-154.5,68.87c-34.53,0-67.08-8.42-95.73-23.34c-10.27-5.32-20.02-11.5-29.19-18.41
				c0-0.02-0.02-0.02-0.02-0.02l16.53-30.87l45.79-85.59l18.43-34.44l66.24-123.78l19.53-36.49l19.53,36.51l84.64,158.2h-39.05
				l-65.12-121.72l-46.69,87.27l-18.43,34.44L128.3,361.72c23.81,12.34,50.83,19.31,79.44,19.31c55.63,0,105.23-26.35,136.96-67.23
				c8.16-10.51,15.13-21.98,20.73-34.23c10.03-21.89,15.61-46.22,15.61-71.84c0-87.25-64.82-159.65-148.84-171.55l17.11-32.01
				C344.11,23.4,415.48,107.23,415.48,207.74z"/>
		</g>
	</g>
	<g>
		<g>
			<path class="st1" d="M220.65,34.94L120.12,222.81h32.08l-18.43,34.44h-71.1l5.15-9.62l13.28-24.82l99.65-186.25
				c-82.77,12.98-146.3,84.8-146.3,171.18c0,50.63,21.81,96.25,56.53,127.91l-16.71,31.26C28.87,328.83,0,271.65,0,207.74
				C0,95.52,88.97,4.09,200.22,0.15c2.5-0.11,4.99-0.15,7.51-0.15c10.33,0,20.49,0.75,30.42,2.22L220.65,34.94z"/>
		</g>
		<g>
			<polygon class="st1" points="283.86,222.81 302.29,257.25 195.68,257.25 214.11,222.81 			"/>
		</g>
	</g>
	<g>
		<path class="st2" d="M14.22,459.6h7.32v26.47h13.57v6.76H14.22V459.6z"/>
		<path class="st2" d="M63.69,484.99l7.42,7.84h-9.06l-2.77-3.14c-2.72,2.82-5.82,3.99-9.76,3.99c-6.01,0-11.78-3.29-11.78-9.95
			c0-4.27,3.1-7.75,7.04-9.06c-2.16-2.35-3.66-4.18-3.66-7.46c0-6.01,5.07-8.45,10.37-8.45c5.11,0,9.67,2.58,9.67,8.17
			c0,3.94-2.81,6.9-6.15,8.64l4.27,4.55l3.24-4.41h8.17L63.69,484.99z M49.14,478.66c-1.83,1.13-3.8,2.25-3.8,4.74
			c0,2.44,2.16,4.08,4.46,4.08c2.16,0,3.66-1.08,5.21-2.44L49.14,478.66z M48.15,467.49c0,1.64,1.64,3.14,2.77,4.18
			c1.45-0.85,3.75-2.39,3.75-4.27c0-1.92-1.5-3-3.29-3C49.56,464.39,48.15,465.61,48.15,467.49z"/>
		<path class="st2" d="M85.7,459.6h6.06l14.46,33.23h-8.26l-2.86-7.04H82.18l-2.77,7.04h-8.07L85.7,459.6z M88.52,469.27
			l-4.04,10.33h8.12L88.52,469.27z"/>
		<path class="st2" d="M139.58,458.76c10.37,0,17.93,6.81,17.93,17.46c0,10.66-7.56,17.46-17.93,17.46
			c-10.37,0-17.93-6.81-17.93-17.46C121.64,465.56,129.2,458.76,139.58,458.76z M139.58,486.92c6.24,0,10.33-4.51,10.33-10.7
			c0-6.2-4.08-10.7-10.33-10.7c-6.24,0-10.33,4.51-10.33,10.7C129.25,482.41,133.33,486.92,139.58,486.92z"/>
		<path class="st2" d="M190.5,480.02c0,7.84-4.79,13.66-13.99,13.66c-9.25,0-14.03-5.82-14.03-13.66V459.6h7.32v20.14
			c0,4.08,2.81,7.18,6.71,7.18c3.85,0,6.67-3.1,6.67-7.18V459.6h7.32V480.02z"/>
		<path class="st2" d="M203.68,466.08h-9.48v-6.48h26.29v6.48H211v26.76h-7.32V466.08z"/>
		<path class="st2" d="M224.47,459.6h22.3v6.76h-14.97v6.76h13.85v6.76h-13.85v12.95h-7.32V459.6z"/>
		<path class="st2" d="M251.92,459.6h7.32v33.23h-7.32V459.6z"/>
		<path class="st2" d="M272.34,466.08h-9.48v-6.48h26.29v6.48h-9.48v26.76h-7.32V466.08z"/>
		<path class="st2" d="M299.28,466.08h-9.48v-6.48h26.28v6.48h-9.48v26.76h-7.32V466.08z"/>
		<path class="st2" d="M320.07,459.6h22.58v6.76h-15.26v6.2h14.41v6.76h-14.41v6.76h16.1v6.76h-23.42V459.6z"/>
		<path class="st2" d="M349.35,459.6h12.86c6.81,0,12.53,2.35,12.53,10.09c0,4.65-2.49,8.26-7.18,9.11l8.45,14.03h-8.78l-6.95-13.28
			h-3.61v13.28h-7.32V459.6z M356.67,473.35h4.32c2.67,0,6.15-0.09,6.15-3.71c0-3.33-3-3.85-5.68-3.85h-4.79V473.35z"/>
		<path class="st2" d="M396.19,467.72c-1.17-1.5-3.52-2.21-5.3-2.21c-2.06,0-4.93,0.94-4.93,3.43c0,6.06,15.3,2.16,15.3,13.8
			c0,7.42-5.96,10.94-12.82,10.94c-4.27,0-8.03-1.27-11.17-4.18l5.21-5.73c1.5,1.97,3.94,3.14,6.38,3.14c2.39,0,5.07-1.13,5.07-3.47
			c0-6.1-15.58-2.82-15.58-13.89c0-7.09,6.15-10.8,12.67-10.8c3.75,0,7.37,0.99,10.19,3.47L396.19,467.72z"/>
	</g>
</g>
</svg>
