<?xml version="1.0" encoding="utf-8"?>
<!-- Generator: Adobe Illustrator 27.0.1, SVG Export Plug-In . SVG Version: 6.00 Build 0)  -->
<svg version="1.1" id="Layer_1" xmlns="http://www.w3.org/2000/svg" xmlns:xlink="http://www.w3.org/1999/xlink" x="0px" y="0px"
	 viewBox="0 0 206.57 60.58" style="enable-background:new 0 0 206.57 60.58;" xml:space="preserve">
<style type="text/css">
	.st0{fill:#FFFFFF;}
	.st1{fill-rule:evenodd;clip-rule:evenodd;fill:#FFFFFF;}
</style>
<g id="Group_15">
	<g id="Group_12">
		<path id="Path_2" class="st0" d="M47.44,60.58H13.13C5.88,60.57,0.01,54.7,0,47.45V13.13C0.01,5.88,5.88,0.01,13.13,0h34.32
			c7.25,0.01,13.12,5.88,13.13,13.13v34.33C60.56,54.7,54.69,60.57,47.44,60.58z M13.13,2.36c-5.95,0-10.77,4.82-10.77,10.77v34.33
			c0,5.95,4.82,10.77,10.77,10.77h34.32c5.95-0.01,10.76-4.83,10.77-10.77V13.13C58.21,7.18,53.39,2.36,47.44,2.36L13.13,2.36z"/>
	</g>
	<g id="Group_14" transform="translate(16.99 5.435)">
		<g id="Group_13">
			<path id="Path_3" class="st1" d="M8.1,49.71h9.63V27.5h7.11l1.42-8.97h-8.53v-6.79c0-2.51,2.4-3.94,4.7-3.94h4.16V0.36
				l-7.45-0.33C12.04-0.41,8.1,5.17,8.1,11.85v6.68H0.01v8.97H8.1L8.1,49.71z"/>
		</g>
	</g>
</g>
<g id="Group_18" transform="translate(73)">
	<g id="Group_16">
		<path id="Path_4" class="st0" d="M47.46,60.58H13.13C5.88,60.57,0.01,54.7,0,47.45V13.13C0.01,5.88,5.88,0.01,13.13,0h34.33
			c7.25,0.01,13.12,5.88,13.13,13.13v34.33C60.57,54.7,54.7,60.57,47.46,60.58z M13.13,2.36C7.18,2.36,2.37,7.18,2.36,13.13v34.33
			c0.01,5.95,4.83,10.76,10.77,10.77h34.33c5.95-0.01,10.76-4.83,10.77-10.77V13.13C58.22,7.18,53.4,2.36,47.46,2.36L13.13,2.36z"/>
	</g>
	<g id="Group_17" transform="translate(7.747 7.803)">
		<path id="Path_5" class="st1" d="M12.16,0h20.76c6.7,0.03,12.13,5.46,12.16,12.16v20.66c-0.03,6.7-5.46,12.13-12.16,12.16H12.16
			C5.46,44.94,0.04,39.52,0,32.82V12.16C0.04,5.46,5.46,0.04,12.16,0z M34.65,7.86L34.65,7.86c1.42,0.02,2.56,1.16,2.58,2.58l0,0
			c-0.02,1.42-1.16,2.56-2.58,2.58l0,0c-1.41,0.02-2.57-1.11-2.59-2.52c0-0.02,0-0.04,0-0.06l0,0c-0.01-1.41,1.12-2.57,2.53-2.58
			C34.61,7.86,34.63,7.86,34.65,7.86z M22.5,10.23h0.1c6.74,0.07,12.2,5.51,12.27,12.26l0,0c-0.03,6.76-5.51,12.24-12.27,12.27h-0.1
			c-6.74-0.04-12.18-5.53-12.16-12.27l0,0C10.36,15.76,15.78,10.3,22.5,10.23L22.5,10.23z M22.5,14.43h0.1
			c4.44,0.03,8.04,3.62,8.07,8.06l0,0c0.01,4.48-3.59,8.14-8.07,8.18h-0.1c-4.48-0.04-8.09-3.7-8.07-8.18l0,0
			C14.45,18.04,18.05,14.45,22.5,14.43z M12.27,3.87h20.55c4.63,0.01,8.38,3.76,8.38,8.39v20.44c0,4.63-3.75,8.39-8.38,8.4H12.27
			c-4.63-0.01-8.39-3.76-8.4-8.4V12.27C3.88,7.63,7.64,3.88,12.27,3.87z"/>
	</g>
</g>
<g id="Group_21" transform="translate(146)">
	<g id="Group_19">
		<path id="Path_6" class="st0" d="M47.44,60.58H13.13C5.88,60.57,0.01,54.7,0,47.45V13.13C0.01,5.88,5.88,0.01,13.13,0h34.32
			c7.25,0.01,13.12,5.88,13.13,13.13v34.33C60.56,54.7,54.69,60.57,47.44,60.58z M13.13,2.36C7.18,2.36,2.36,7.18,2.36,13.13v34.33
			c0.01,5.95,4.83,10.77,10.77,10.77h34.32c5.95-0.01,10.76-4.83,10.77-10.77V13.13C58.21,7.18,53.39,2.36,47.44,2.36L13.13,2.36z"
			/>
	</g>
	<g id="Group_20" transform="translate(8.428 12.541)">
		<path id="Path_7" class="st1" d="M21.57,10.91c-1.74-9.15,9.28-14.6,15.76-7.99c1.92-0.58,3.75-1.39,5.46-2.43
			c-0.75,2.1-2.18,3.9-4.06,5.1c1.72-0.21,3.41-0.69,4.99-1.4c-0.94,1.85-2.44,3.36-4.3,4.29C40.93,29.46,18.32,42.22,0,31.78
			c0,0,9.04,0.46,12.87-3.94c0,0-5.57,0.46-8.35-6.26c1.37,0.47,2.87,0.38,4.18-0.23c0,0-6.49-1.04-7.07-8.81
			c1.26,0.94,2.85,1.31,4.4,1.04c0,0-7.19-4.29-3.13-12.06C2.91,1.52,10.56,11.26,21.57,10.91L21.57,10.91z"/>
	</g>
</g>
</svg>
