<?xml version="1.0" encoding="utf-8"?>
<!-- Generator: Adobe Illustrator 27.0.1, SVG Export Plug-In . SVG Version: 6.00 Build 0)  -->
<svg version="1.1" id="Layer_1" xmlns="http://www.w3.org/2000/svg" xmlns:xlink="http://www.w3.org/1999/xlink" x="0px" y="0px"
	 viewBox="0 0 60.58 60.58" style="enable-background:new 0 0 60.58 60.58;" xml:space="preserve">
<style type="text/css">
	.st0{fill:#FFFFFF;}
	.st1{fill-rule:evenodd;clip-rule:evenodd;fill:#FFFFFF;}
</style>
<g id="Group_21" transform="translate(146)">
	<g id="Group_19">
		<path id="Path_6" class="st0" d="M-98.56,60.58h-34.31c-7.25-0.01-13.12-5.88-13.13-13.13V13.13c0.01-7.25,5.88-13.12,13.13-13.13
			h34.32c7.25,0.01,13.12,5.88,13.13,13.13v34.33C-85.44,54.7-91.31,60.57-98.56,60.58z M-132.87,2.36
			c-5.95,0-10.77,4.82-10.77,10.77v34.33c0.01,5.95,4.83,10.77,10.77,10.77h34.32c5.95-0.01,10.76-4.83,10.77-10.77V13.13
			c-0.01-5.95-4.83-10.77-10.78-10.77H-132.87z"/>
	</g>
	<g id="Group_20" transform="translate(8.428 12.541)">
		<path id="Path_7" class="st1" d="M-124.43,10.91c-1.74-9.15,9.28-14.6,15.76-7.99c1.92-0.58,3.75-1.39,5.46-2.43
			c-0.75,2.1-2.18,3.9-4.06,5.1c1.72-0.21,3.41-0.69,4.99-1.4c-0.94,1.85-2.44,3.36-4.3,4.29c1.51,20.98-21.1,33.74-39.42,23.3
			c0,0,9.04,0.46,12.87-3.94c0,0-5.57,0.46-8.35-6.26c1.37,0.47,2.87,0.38,4.18-0.23c0,0-6.49-1.04-7.07-8.81
			c1.26,0.94,2.85,1.31,4.4,1.04c0,0-7.19-4.29-3.13-12.06C-143.09,1.52-135.44,11.26-124.43,10.91L-124.43,10.91z"/>
	</g>
</g>
</svg>
